<svg xmlns="http://www.w3.org/2000/svg" xmlns:xlink="http://www.w3.org/1999/xlink" width="50" zoomAndPan="magnify" viewBox="0 0 37.5 30.000001" height="40" preserveAspectRatio="xMidYMid meet" version="1.0"><defs><g/><clipPath id="9f63a0a9cd"><path d="M 11.917969 11.726562 L 17.722656 11.726562 L 17.722656 17.535156 L 11.917969 17.535156 Z M 11.917969 11.726562 " clip-rule="nonzero"/></clipPath><clipPath id="9f477fa18d"><path d="M 12 16 L 13 16 L 13 17.535156 L 12 17.535156 Z M 12 16 " clip-rule="nonzero"/></clipPath><clipPath id="81f5bef642"><path d="M 15 16 L 16 16 L 16 17.535156 L 15 17.535156 Z M 15 16 " clip-rule="nonzero"/></clipPath><clipPath id="5f8cf406c0"><path d="M 12 11.726562 L 14 11.726562 L 14 13 L 12 13 Z M 12 11.726562 " clip-rule="nonzero"/></clipPath></defs><g clip-path="url(#9f63a0a9cd)"><path fill="#000000" d="M 17.71875 11.867188 C 17.699219 11.773438 17.609375 11.710938 17.519531 11.730469 L 16.613281 11.902344 C 16.554688 11.914062 16.507812 11.953125 16.484375 12.007812 L 16.089844 13.015625 L 13.890625 13.070312 C 14 13.179688 14.070312 13.332031 14.070312 13.5 C 14.070312 13.832031 13.800781 14.097656 13.472656 14.097656 C 13.140625 14.097656 12.871094 13.832031 12.871094 13.5 C 12.871094 13.492188 12.871094 13.488281 12.871094 13.484375 C 12.832031 13.5 12.785156 13.511719 12.734375 13.511719 C 12.53125 13.511719 12.367188 13.34375 12.367188 13.140625 C 12.367188 13.132812 12.367188 13.121094 12.367188 13.109375 L 12.085938 13.117188 C 12.039062 13.117188 11.992188 13.140625 11.960938 13.175781 C 11.929688 13.210938 11.914062 13.261719 11.921875 13.308594 L 12.164062 15.199219 C 12.175781 15.277344 12.238281 15.339844 12.320312 15.347656 L 15.257812 15.574219 L 15.785156 16.101562 C 15.847656 16.160156 15.824219 16.230469 15.816406 16.25 C 15.808594 16.273438 15.773438 16.339844 15.6875 16.339844 L 12.136719 16.339844 C 12.042969 16.339844 11.964844 16.414062 11.964844 16.507812 C 11.964844 16.601562 12.042969 16.679688 12.136719 16.679688 L 12.5 16.679688 C 12.402344 16.738281 12.335938 16.84375 12.335938 16.964844 C 12.335938 17.148438 12.484375 17.296875 12.667969 17.296875 C 12.851562 17.296875 12.996094 17.148438 12.996094 16.964844 C 12.996094 16.84375 12.929688 16.738281 12.832031 16.679688 L 15.582031 16.679688 C 15.484375 16.738281 15.417969 16.84375 15.417969 16.964844 C 15.417969 17.148438 15.566406 17.296875 15.75 17.296875 C 15.929688 17.296875 16.078125 17.148438 16.078125 16.964844 C 16.078125 16.820312 15.984375 16.695312 15.851562 16.652344 C 15.976562 16.605469 16.078125 16.511719 16.132812 16.382812 C 16.207031 16.199219 16.167969 15.996094 16.027344 15.859375 L 15.53125 15.367188 L 16.367188 13.246094 L 16.765625 12.21875 L 17.582031 12.066406 C 17.675781 12.046875 17.734375 11.957031 17.71875 11.867188 Z M 12.875 16.964844 C 12.875 17.078125 12.78125 17.171875 12.667969 17.171875 C 12.554688 17.171875 12.460938 17.078125 12.460938 16.964844 C 12.460938 16.851562 12.554688 16.757812 12.667969 16.757812 C 12.78125 16.757812 12.875 16.851562 12.875 16.964844 Z M 15.957031 16.964844 C 15.957031 17.078125 15.863281 17.171875 15.75 17.171875 C 15.632812 17.171875 15.542969 17.078125 15.542969 16.964844 C 15.542969 16.851562 15.632812 16.757812 15.75 16.757812 C 15.863281 16.757812 15.957031 16.851562 15.957031 16.964844 Z M 15.957031 16.964844 " fill-opacity="1" fill-rule="nonzero"/></g><g clip-path="url(#9f477fa18d)"><path fill="#000000" d="M 12.667969 16.867188 C 12.613281 16.867188 12.570312 16.910156 12.570312 16.964844 C 12.570312 17.019531 12.613281 17.0625 12.667969 17.0625 C 12.71875 17.0625 12.761719 17.019531 12.761719 16.964844 C 12.761719 16.910156 12.71875 16.867188 12.667969 16.867188 Z M 12.667969 16.867188 " fill-opacity="1" fill-rule="nonzero"/></g><g clip-path="url(#81f5bef642)"><path fill="#000000" d="M 15.652344 16.964844 C 15.652344 17.019531 15.695312 17.0625 15.75 17.0625 C 15.800781 17.0625 15.84375 17.019531 15.84375 16.964844 C 15.84375 16.910156 15.800781 16.867188 15.75 16.867188 C 15.695312 16.867188 15.652344 16.910156 15.652344 16.964844 Z M 15.652344 16.964844 " fill-opacity="1" fill-rule="nonzero"/></g><path fill="#ffffff" d="M 13.898438 13.5 C 13.898438 13.617188 13.855469 13.71875 13.773438 13.800781 C 13.691406 13.886719 13.589844 13.925781 13.472656 13.925781 C 13.351562 13.925781 13.253906 13.886719 13.167969 13.800781 C 13.085938 13.71875 13.042969 13.617188 13.042969 13.5 C 13.042969 13.382812 13.085938 13.28125 13.167969 13.199219 C 13.253906 13.113281 13.351562 13.074219 13.472656 13.074219 C 13.589844 13.074219 13.691406 13.113281 13.773438 13.199219 C 13.855469 13.28125 13.898438 13.382812 13.898438 13.5 Z M 13.898438 13.5 " fill-opacity="1" fill-rule="nonzero"/><path fill="#ffffff" d="M 12.925781 13.144531 C 12.925781 13.277344 12.859375 13.34375 12.726562 13.34375 C 12.59375 13.34375 12.527344 13.277344 12.527344 13.144531 C 12.527344 13.007812 12.59375 12.941406 12.726562 12.941406 C 12.859375 12.941406 12.925781 13.007812 12.925781 13.144531 Z M 12.925781 13.144531 " fill-opacity="1" fill-rule="nonzero"/><path fill="#ffffff" d="M 13.558594 12.523438 C 13.558594 12.601562 13.53125 12.671875 13.472656 12.726562 C 13.417969 12.78125 13.351562 12.808594 13.269531 12.808594 C 13.191406 12.808594 13.125 12.78125 13.066406 12.726562 C 13.011719 12.671875 12.984375 12.601562 12.984375 12.523438 C 12.984375 12.445312 13.011719 12.375 13.066406 12.320312 C 13.125 12.265625 13.191406 12.234375 13.269531 12.234375 C 13.351562 12.234375 13.417969 12.265625 13.472656 12.320312 C 13.53125 12.375 13.558594 12.445312 13.558594 12.523438 Z M 13.558594 12.523438 " fill-opacity="1" fill-rule="nonzero"/><g clip-path="url(#5f8cf406c0)"><path fill="#ffffff" d="M 13.109375 11.992188 C 13.109375 12.078125 13.066406 12.125 12.976562 12.125 C 12.886719 12.125 12.839844 12.078125 12.839844 11.992188 C 12.839844 11.902344 12.886719 11.855469 12.976562 11.855469 C 13.066406 11.855469 13.109375 11.902344 13.109375 11.992188 Z M 13.109375 11.992188 " fill-opacity="1" fill-rule="nonzero"/></g><path fill="#ffffff" d="M 12.761719 12.472656 C 12.761719 12.542969 12.726562 12.578125 12.65625 12.578125 C 12.585938 12.578125 12.550781 12.542969 12.550781 12.472656 C 12.550781 12.402344 12.585938 12.367188 12.65625 12.367188 C 12.726562 12.367188 12.761719 12.402344 12.761719 12.472656 Z M 12.761719 12.472656 " fill-opacity="1" fill-rule="nonzero"/><g fill="#3a4a3d" fill-opacity="1"><g transform="translate(16.548505, 16.108483)"><g><path d="M 0.53125 0.015625 C 0.4375 0.015625 0.351562 -0.00390625 0.28125 -0.046875 C 0.21875 -0.0859375 0.171875 -0.144531 0.140625 -0.21875 C 0.109375 -0.289062 0.09375 -0.375 0.09375 -0.46875 C 0.09375 -0.5625 0.109375 -0.644531 0.140625 -0.71875 C 0.171875 -0.800781 0.21875 -0.863281 0.28125 -0.90625 C 0.351562 -0.945312 0.4375 -0.96875 0.53125 -0.96875 C 0.675781 -0.96875 0.773438 -0.941406 0.828125 -0.890625 C 0.847656 -0.867188 0.859375 -0.84375 0.859375 -0.8125 C 0.867188 -0.78125 0.875 -0.722656 0.875 -0.640625 L 0.84375 -0.640625 C 0.832031 -0.722656 0.800781 -0.785156 0.75 -0.828125 C 0.707031 -0.867188 0.648438 -0.890625 0.578125 -0.890625 C 0.472656 -0.890625 0.394531 -0.847656 0.34375 -0.765625 C 0.300781 -0.691406 0.28125 -0.59375 0.28125 -0.46875 C 0.28125 -0.351562 0.300781 -0.253906 0.34375 -0.171875 C 0.394531 -0.0976562 0.472656 -0.0625 0.578125 -0.0625 C 0.640625 -0.0625 0.691406 -0.0703125 0.734375 -0.09375 C 0.785156 -0.125 0.828125 -0.164062 0.859375 -0.21875 L 0.90625 -0.1875 C 0.863281 -0.113281 0.8125 -0.0625 0.75 -0.03125 C 0.6875 0 0.613281 0.015625 0.53125 0.015625 Z M 0.53125 0.015625 "/></g></g></g><g fill="#3a4a3d" fill-opacity="1"><g transform="translate(17.721736, 16.108483)"><g><path d="M 0.15625 -1.09375 C 0.15625 -1.15625 0.144531 -1.203125 0.125 -1.234375 C 0.101562 -1.273438 0.0664062 -1.296875 0.015625 -1.296875 L -0.03125 -1.296875 L -0.03125 -1.328125 L 0.15625 -1.328125 C 0.207031 -1.328125 0.242188 -1.320312 0.265625 -1.3125 C 0.285156 -1.300781 0.300781 -1.273438 0.3125 -1.234375 C 0.320312 -1.203125 0.328125 -1.15625 0.328125 -1.09375 L 0.328125 0 L 0.15625 0 Z M 0.15625 -1.09375 "/></g></g></g><g fill="#3a4a3d" fill-opacity="1"><g transform="translate(18.410003, 16.108483)"><g><path d="M 0.53125 0.015625 C 0.4375 0.015625 0.359375 -0.00390625 0.296875 -0.046875 C 0.234375 -0.0859375 0.179688 -0.144531 0.140625 -0.21875 C 0.109375 -0.300781 0.09375 -0.382812 0.09375 -0.46875 C 0.09375 -0.5625 0.109375 -0.644531 0.140625 -0.71875 C 0.179688 -0.800781 0.234375 -0.863281 0.296875 -0.90625 C 0.359375 -0.945312 0.4375 -0.96875 0.53125 -0.96875 C 0.625 -0.96875 0.703125 -0.945312 0.765625 -0.90625 C 0.835938 -0.863281 0.890625 -0.800781 0.921875 -0.71875 C 0.960938 -0.644531 0.984375 -0.5625 0.984375 -0.46875 C 0.984375 -0.382812 0.960938 -0.300781 0.921875 -0.21875 C 0.890625 -0.144531 0.835938 -0.0859375 0.765625 -0.046875 C 0.703125 -0.00390625 0.625 0.015625 0.53125 0.015625 Z M 0.53125 -0.0625 C 0.582031 -0.0625 0.625 -0.078125 0.65625 -0.109375 C 0.695312 -0.148438 0.726562 -0.203125 0.75 -0.265625 C 0.769531 -0.328125 0.78125 -0.394531 0.78125 -0.46875 C 0.78125 -0.550781 0.769531 -0.625 0.75 -0.6875 C 0.726562 -0.75 0.695312 -0.796875 0.65625 -0.828125 C 0.625 -0.867188 0.582031 -0.890625 0.53125 -0.890625 C 0.476562 -0.890625 0.429688 -0.867188 0.390625 -0.828125 C 0.359375 -0.796875 0.332031 -0.75 0.3125 -0.6875 C 0.289062 -0.625 0.28125 -0.550781 0.28125 -0.46875 C 0.28125 -0.394531 0.289062 -0.328125 0.3125 -0.265625 C 0.332031 -0.203125 0.359375 -0.148438 0.390625 -0.109375 C 0.429688 -0.078125 0.476562 -0.0625 0.53125 -0.0625 Z M 0.53125 -0.0625 "/></g></g></g><g fill="#3a4a3d" fill-opacity="1"><g transform="translate(19.677812, 16.108483)"><g><path d="M 0.421875 0.015625 C 0.347656 0.015625 0.289062 -0.00390625 0.25 -0.046875 C 0.207031 -0.0859375 0.1875 -0.148438 0.1875 -0.234375 L 0.1875 -0.859375 L 0.046875 -0.859375 L 0.046875 -0.953125 L 0.1875 -0.953125 L 0.1875 -1.125 L 0.28125 -1.25 L 0.359375 -1.25 L 0.359375 -0.953125 L 0.609375 -0.953125 L 0.609375 -0.859375 L 0.359375 -0.859375 L 0.359375 -0.234375 C 0.359375 -0.117188 0.40625 -0.0625 0.5 -0.0625 C 0.53125 -0.0625 0.554688 -0.0625 0.578125 -0.0625 C 0.609375 -0.0703125 0.632812 -0.0820312 0.65625 -0.09375 L 0.671875 -0.0625 C 0.640625 -0.0390625 0.601562 -0.0195312 0.5625 0 C 0.53125 0.0078125 0.484375 0.015625 0.421875 0.015625 Z M 0.421875 0.015625 "/></g></g></g><g fill="#3a4a3d" fill-opacity="1"><g transform="translate(20.559259, 16.108483)"><g><path d="M 0.140625 -1.09375 C 0.140625 -1.15625 0.128906 -1.203125 0.109375 -1.234375 C 0.0976562 -1.273438 0.0625 -1.296875 0 -1.296875 L -0.03125 -1.296875 L -0.03125 -1.328125 L 0.140625 -1.328125 C 0.191406 -1.328125 0.226562 -1.320312 0.25 -1.3125 C 0.28125 -1.300781 0.300781 -1.273438 0.3125 -1.234375 C 0.320312 -1.203125 0.328125 -1.15625 0.328125 -1.09375 L 0.328125 -0.859375 C 0.359375 -0.890625 0.394531 -0.914062 0.4375 -0.9375 C 0.476562 -0.957031 0.53125 -0.96875 0.59375 -0.96875 C 0.6875 -0.96875 0.765625 -0.941406 0.828125 -0.890625 C 0.898438 -0.835938 0.9375 -0.742188 0.9375 -0.609375 L 0.9375 0 L 0.75 0 L 0.75 -0.609375 C 0.75 -0.703125 0.726562 -0.769531 0.6875 -0.8125 C 0.644531 -0.851562 0.59375 -0.875 0.53125 -0.875 C 0.457031 -0.875 0.390625 -0.835938 0.328125 -0.765625 L 0.328125 0 L 0.140625 0 Z M 0.140625 -1.09375 "/></g></g></g><g fill="#3a4a3d" fill-opacity="1"><g transform="translate(21.825056, 16.108483)"><g><path d="M 0.25 -1.0625 C 0.21875 -1.0625 0.191406 -1.070312 0.171875 -1.09375 C 0.148438 -1.125 0.140625 -1.160156 0.140625 -1.203125 C 0.140625 -1.222656 0.144531 -1.238281 0.15625 -1.25 C 0.175781 -1.269531 0.203125 -1.28125 0.234375 -1.28125 C 0.265625 -1.28125 0.289062 -1.269531 0.3125 -1.25 C 0.332031 -1.226562 0.34375 -1.195312 0.34375 -1.15625 C 0.34375 -1.125 0.332031 -1.097656 0.3125 -1.078125 C 0.300781 -1.066406 0.28125 -1.0625 0.25 -1.0625 Z M 0.171875 -0.703125 C 0.171875 -0.773438 0.160156 -0.828125 0.140625 -0.859375 C 0.128906 -0.890625 0.09375 -0.90625 0.03125 -0.90625 L 0 -0.90625 L 0 -0.953125 L 0.171875 -0.953125 C 0.222656 -0.953125 0.257812 -0.941406 0.28125 -0.921875 C 0.3125 -0.910156 0.332031 -0.890625 0.34375 -0.859375 C 0.351562 -0.828125 0.359375 -0.773438 0.359375 -0.703125 L 0.359375 0 L 0.171875 0 Z M 0.171875 -0.703125 "/></g></g></g><g fill="#3a4a3d" fill-opacity="1"><g transform="translate(22.521372, 16.108483)"><g><path d="M 0.171875 -0.703125 C 0.171875 -0.773438 0.160156 -0.828125 0.140625 -0.859375 C 0.128906 -0.890625 0.09375 -0.90625 0.03125 -0.90625 L 0 -0.90625 L 0 -0.953125 L 0.171875 -0.953125 C 0.222656 -0.953125 0.257812 -0.941406 0.28125 -0.921875 C 0.3125 -0.910156 0.332031 -0.890625 0.34375 -0.859375 L 0.359375 -0.859375 C 0.390625 -0.890625 0.425781 -0.914062 0.46875 -0.9375 C 0.507812 -0.957031 0.5625 -0.96875 0.625 -0.96875 C 0.71875 -0.96875 0.796875 -0.941406 0.859375 -0.890625 C 0.929688 -0.835938 0.96875 -0.742188 0.96875 -0.609375 L 0.96875 0 L 0.78125 0 L 0.78125 -0.609375 C 0.78125 -0.703125 0.757812 -0.769531 0.71875 -0.8125 C 0.675781 -0.851562 0.625 -0.875 0.5625 -0.875 C 0.488281 -0.875 0.421875 -0.835938 0.359375 -0.765625 L 0.359375 0 L 0.171875 0 Z M 0.171875 -0.703125 "/></g></g></g><g fill="#3a4a3d" fill-opacity="1"><g transform="translate(23.817354, 16.108483)"><g><path d="M 0.5 0.40625 C 0.363281 0.40625 0.253906 0.378906 0.171875 0.328125 C 0.0859375 0.273438 0.046875 0.195312 0.046875 0.09375 C 0.046875 0.03125 0.0664062 -0.0195312 0.109375 -0.0625 C 0.148438 -0.113281 0.207031 -0.148438 0.28125 -0.171875 C 0.21875 -0.203125 0.1875 -0.242188 0.1875 -0.296875 C 0.1875 -0.316406 0.191406 -0.332031 0.203125 -0.34375 C 0.222656 -0.363281 0.242188 -0.382812 0.265625 -0.40625 C 0.222656 -0.425781 0.1875 -0.457031 0.15625 -0.5 C 0.125 -0.550781 0.109375 -0.609375 0.109375 -0.671875 C 0.109375 -0.867188 0.238281 -0.96875 0.5 -0.96875 L 0.875 -0.96875 L 0.875 -0.921875 L 0.734375 -0.890625 C 0.773438 -0.867188 0.804688 -0.835938 0.828125 -0.796875 C 0.859375 -0.753906 0.875 -0.710938 0.875 -0.671875 C 0.875 -0.460938 0.75 -0.359375 0.5 -0.359375 C 0.351562 -0.359375 0.28125 -0.335938 0.28125 -0.296875 C 0.28125 -0.242188 0.351562 -0.21875 0.5 -0.21875 C 0.625 -0.21875 0.726562 -0.191406 0.8125 -0.140625 C 0.894531 -0.0859375 0.9375 -0.0078125 0.9375 0.09375 C 0.9375 0.195312 0.894531 0.273438 0.8125 0.328125 C 0.738281 0.378906 0.632812 0.40625 0.5 0.40625 Z M 0.5 -0.4375 C 0.5625 -0.4375 0.609375 -0.453125 0.640625 -0.484375 C 0.679688 -0.523438 0.703125 -0.585938 0.703125 -0.671875 C 0.703125 -0.742188 0.679688 -0.796875 0.640625 -0.828125 C 0.609375 -0.867188 0.5625 -0.890625 0.5 -0.890625 C 0.4375 -0.890625 0.382812 -0.867188 0.34375 -0.828125 C 0.3125 -0.796875 0.296875 -0.742188 0.296875 -0.671875 C 0.296875 -0.585938 0.3125 -0.523438 0.34375 -0.484375 C 0.382812 -0.453125 0.4375 -0.4375 0.5 -0.4375 Z M 0.5 0.328125 C 0.570312 0.328125 0.632812 0.304688 0.6875 0.265625 C 0.738281 0.222656 0.765625 0.164062 0.765625 0.09375 C 0.765625 -0.0390625 0.679688 -0.117188 0.515625 -0.140625 L 0.40625 -0.15625 C 0.351562 -0.132812 0.3125 -0.101562 0.28125 -0.0625 C 0.25 -0.0195312 0.234375 0.03125 0.234375 0.09375 C 0.234375 0.164062 0.253906 0.222656 0.296875 0.265625 C 0.347656 0.304688 0.414062 0.328125 0.5 0.328125 Z M 0.5 0.328125 "/></g></g></g><g fill="#3a4a3d" fill-opacity="1"><g transform="translate(16.548505, 14.406392)"><g><path d="M 0.4375 0.015625 C 0.363281 0.015625 0.296875 0 0.234375 -0.03125 C 0.179688 -0.0703125 0.140625 -0.125 0.109375 -0.1875 C 0.0859375 -0.25 0.078125 -0.320312 0.078125 -0.40625 C 0.078125 -0.476562 0.0859375 -0.546875 0.109375 -0.609375 C 0.140625 -0.679688 0.179688 -0.734375 0.234375 -0.765625 C 0.285156 -0.804688 0.347656 -0.828125 0.421875 -0.828125 C 0.535156 -0.828125 0.617188 -0.789062 0.671875 -0.71875 C 0.734375 -0.65625 0.765625 -0.566406 0.765625 -0.453125 L 0.765625 -0.375 L 0.234375 -0.375 C 0.234375 -0.28125 0.253906 -0.203125 0.296875 -0.140625 C 0.335938 -0.078125 0.394531 -0.046875 0.46875 -0.046875 C 0.519531 -0.046875 0.566406 -0.0546875 0.609375 -0.078125 C 0.648438 -0.109375 0.6875 -0.144531 0.71875 -0.1875 L 0.75 -0.15625 C 0.707031 -0.09375 0.660156 -0.046875 0.609375 -0.015625 C 0.566406 0.00390625 0.507812 0.015625 0.4375 0.015625 Z M 0.609375 -0.453125 C 0.609375 -0.546875 0.59375 -0.617188 0.5625 -0.671875 C 0.53125 -0.722656 0.484375 -0.75 0.421875 -0.75 C 0.390625 -0.75 0.359375 -0.734375 0.328125 -0.703125 C 0.296875 -0.679688 0.269531 -0.644531 0.25 -0.59375 C 0.238281 -0.550781 0.234375 -0.503906 0.234375 -0.453125 Z M 0.609375 -0.453125 "/></g></g></g><g fill="#3a4a3d" fill-opacity="1"><g transform="translate(17.387057, 14.406392)"><g><path d="M 0.109375 -0.515625 L 0.546875 -0.515625 L 0.546875 -0.390625 L 0.109375 -0.390625 Z M 0.109375 -0.515625 "/></g></g></g></svg>